<svg xml:space="preserve" viewBox="0 0 100 100" xmlns="http://www.w3.org/2000/svg" id="圖層_1" version="1.1" preserveAspectRatio="xMidYMid" width="200" height="200">
  <g class="ldl-scale" style="transform-origin:50px 50px; animation: pulse 2s infinite;">
    <g class="ldl-ani">
      <g class="ldl-layer">
        <g class="ldl-ani" style="transform-origin:50px 50px;">
          <path stroke-miterlimit="10" stroke-width="3.723" stroke="#333" fill="#e0e0e0" d="M59 59.3v-42c0-5-4-9-9-9s-9 4-9 9v42c-5.1 3.1-8.5 8.6-8.5 15 0 9.7 7.8 17.5 17.5 17.5S67.5 84 67.5 74.3c0-6.4-3.4-12-8.5-15z"></path>
        </g>
      </g>
      <g class="ldl-layer">
        <g class="ldl-ani" style="transform-origin:50px 50px;">
          <path fill="#c33737" d="M53.5 63.3v-21c0-1.8-1.5-3.3-3.3-3.3h-.3c-1.8 0-3.3 1.5-3.3 3.3v21c-4.6 1.5-8 5.8-8 11 0 6.4 5.1 11.5 11.5 11.5s11.5-5.1 11.5-11.5c-.1-5.2-3.5-9.5-8.1-11z" style="animation: pulseFill 2s infinite;"></path>
        </g>
      </g>
      <g class="ldl-layer">
        <path d="M60 19.5h6.7" stroke-miterlimit="10" stroke-linecap="round" stroke-width="4" stroke="#333" fill="none"></path>
        <path d="M60 27.5h6.7" stroke-miterlimit="10" stroke-linecap="round" stroke-width="4" stroke="#333" fill="none"></path>
        <path d="M60 35.5h6.7" stroke-miterlimit="10" stroke-linecap="round" stroke-width="4" stroke="#333" fill="none"></path>
        <path d="M60 43.5h6.7" stroke-miterlimit="10" stroke-linecap="round" stroke-width="4" stroke="#333" fill="none"></path>
        <path d="M60 51.5h6.7" stroke-miterlimit="10" stroke-linecap="round" stroke-width="4" stroke="#333" fill="none"></path>
      </g>
    </g>
  </g>
  <style>
    @keyframes pulse {
      0% {
        transform: scale(1);
        opacity: 1;
      }
      50% {
        transform: scale(1.05);
        opacity: 0.9;
      }
      100% {
        transform: scale(1);
        opacity: 1;
      }
    }
  </style>
</svg>
