<svg xml:space="preserve" viewBox="0 0 100 100" xmlns="http://www.w3.org/2000/svg" id="圖層_1" version="1.1" preserveAspectRatio="xMidYMid" width="200" height="200">
  <g class="ldl-scale" style="transform-origin:50px 50px; animation: pulse 2s infinite;">
    <g class="ldl-ani">
      <g class="ldl-layer">
        <path
          stroke-miterlimit="10"
          stroke-linecap="round"
          stroke-width="3"
          stroke="#a0c8d7"
          fill="none"
          d="M29.5 46.3c4.6-3.9 10.7-5.9 16.6-5.5 7.1.5 13.9 4.1 20.9 3.3 2-.2 4-.8 5.6-2 2.3-1.7 3.7-4.7 3.3-7.6-.4-2.9-2.7-5.4-5.5-6-2.8-.6-6 1-7.1 3.7-.7 1.7-.5 3.9.8 5.2 1.3 1.3 3.7 1.5 5 .1"
          style="animation: strokePulse 2s infinite;"
        ></path>
      </g>
      <g class="ldl-layer">
        <path
          stroke-miterlimit="10"
          stroke-linecap="round"
          stroke-width="3"
          stroke="#a0c8d7"
          fill="none"
          d="M25.9 53.9c4.7-3.5 10-6.2 15.6-8"
          style="animation: strokePulse 2s infinite;"
        ></path>
      </g>
      <g class="ldl-layer">
        <path
          stroke-miterlimit="10"
          stroke-linecap="round"
          stroke-width="3"
          stroke="#77a4bd"
          fill="none"
          d="M36.4 54.7c4.6-3.8 10.6-5.9 16.5-5.9 9.5 0 18.3 5.2 27.8 5.2 2.7 0 5.7-.6 7.6-2.6 2.1-2.2 2.3-6.1.3-8.3-2.1-2.3-6.2-2.2-8.1.2-1 1.3-1.3 3.3-.2 4.6s3.5 1.2 4.2-.3"
          style="animation: strokePulse 2s infinite;"
        ></path>
      </g>
      <g class="ldl-layer">
        <path
          stroke-miterlimit="10"
          stroke-linecap="round"
          stroke-width="3"
          stroke="#a0c8d7"
          fill="none"
          d="M10 67.1c4.4 3.2 10.7 2.5 15.9.7 6.2-2.2 11.9-5.7 17.8-8.8 2.2-1.2 4.4-2.3 6.8-2.9 3.2-.8 6.6-.7 9.7.4 1.6.6 3.1 1.4 4.2 2.6 2.1 2.3 2.5 6 1 8.7-1.6 2.7-5 4.2-8 3.5-.8-.2-1.7-.5-2.3-1.1-2.3-2.2-1.5-7.3 2.4-7 1.1.1 2.1.7 2.6 1.7"
          style="animation: strokePulse 2s infinite;"
        ></path>
      </g>
    </g>
  </g>
  <style>
    @keyframes pulse {
      0% {
        transform: scale(1);
        opacity: 1;
      }
      50% {
        transform: scale(1.05);
        opacity: 0.9;
      }
      100% {
        transform: scale(1);
        opacity: 1;
      }
    }

    @keyframes strokePulse {
      0% {
        stroke-width: 3;
      }
      50% {
        stroke-width: 5;
      }
      100% {
        stroke-width: 3;
      }
    }
  </style>
</svg>
